<svg xmlns="http://www.w3.org/2000/svg" width="106.123" height="58.387" viewBox="0 0 106.123 58.387">
  <defs>
    <style>
      .cls-1 {
        fill: #ec4235;
      }

      .cls-2 {
        fill: #507fc1;
      }

      .cls-3 {
        fill: #1a9d54;
      }

      .cls-4 {
        fill: #f4bd1d;
      }
    </style>
  </defs>
  <g id="dsc_logo" transform="translate(-0.001 0.004)">
    <path id="Path_96" data-name="Path 96" class="cls-1" d="M211.252,121.1l36.672-22.042c3.144-1.9,3.969-6.547,1.845-10.4h0c-2.124-3.846-6.4-5.444-9.547-3.557l-36.66,22.024c-3.144,1.887-3.979,6.547-1.845,10.392h0C203.84,121.373,208.108,122.96,211.252,121.1Z" transform="translate(-200.533 -84.311)"/>
    <path id="Path_97" data-name="Path 97" class="cls-2" d="M211.324,105.154l36.62,22.011c3.093,1.887,3.939,6.578,1.794,10.474h0c-2.154,3.907-6.451,5.536-9.588,3.65l-36.631-22c-3.093-1.887-3.939-6.578-1.783-10.485h0C203.921,104.906,208.231,103.267,211.324,105.154Z" transform="translate(-200.532 -83.691)"/>
    <path id="Path_98" data-name="Path 98" class="cls-3" d="M294.263,121.1,257.591,99.062c-3.144-1.9-3.969-6.547-1.845-10.4h0c2.124-3.846,6.4-5.444,9.547-3.557l36.662,22.024c3.144,1.887,3.979,6.547,1.846,10.392h0C301.676,121.373,297.407,122.96,294.263,121.1Z" transform="translate(-198.858 -84.311)"/>
    <path id="Path_99" data-name="Path 99" class="cls-4" d="M294.19,105.154l-36.62,22.011c-3.093,1.887-3.939,6.578-1.794,10.474h0c2.154,3.907,6.451,5.536,9.588,3.65l36.631-22c3.093-1.887,3.939-6.578,1.783-10.485h0C301.593,104.906,297.283,103.267,294.19,105.154Z" transform="translate(-198.858 -83.691)"/>
  </g>
</svg>
