<?xml version="1.0" encoding="UTF-8"?>
<svg xmlns="http://www.w3.org/2000/svg" xmlns:xlink="http://www.w3.org/1999/xlink" width="50pt" height="50pt" viewBox="0 0 50 50" version="1.1">
<g id="surface1220786">
<path style=" stroke:none;fill-rule:nonzero;fill:rgb(22.745098%,29.411765%,33.333333%);fill-opacity:1;" d="M 25 50 C 11.191406 50 0 38.808594 0 25 C 0 11.191406 11.191406 0 25 0 C 38.808594 0 50 11.191406 50 25 C 50 38.808594 38.808594 50 25 50 Z M 25 50 "/>
<path style=" stroke:none;fill-rule:nonzero;fill:rgb(76.470588%,80%,82.745098%);fill-opacity:1;" d="M 19.269531 42.234375 C 19.835938 41.992188 20.230469 41.429688 20.230469 40.777344 L 20.230469 36.484375 C 20.230469 36.328125 20.242188 36.164062 20.265625 36 C 20.253906 36.003906 20.242188 36.003906 20.230469 36.007812 C 20.230469 36.007812 17.847656 36.007812 17.371094 36.007812 C 16.175781 36.007812 15.144531 35.53125 14.667969 34.578125 C 14.109375 33.542969 13.871094 31.796875 12.441406 30.839844 C 12.203125 30.683594 12.363281 30.445312 12.839844 30.445312 C 13.316406 30.523438 14.347656 31.160156 14.984375 32.035156 C 15.699219 32.90625 16.417969 33.625 17.6875 33.625 C 19.664062 33.625 20.722656 33.523438 21.363281 33.183594 C 22.105469 32.078125 23.132812 31.238281 24.207031 31.238281 L 24.207031 31.21875 C 19.699219 31.074219 16.820312 29.578125 15.480469 27.265625 C 12.570312 27.296875 10.03125 27.585938 8.585938 27.828125 C 8.539062 27.566406 8.5 27.304688 8.464844 27.042969 C 9.894531 26.808594 12.316406 26.527344 15.097656 26.476562 C 15.007812 26.253906 14.933594 26.03125 14.867188 25.800781 C 12.078125 25.660156 9.667969 25.769531 8.359375 25.878906 C 8.34375 25.613281 8.324219 25.351562 8.320312 25.082031 C 9.628906 24.976562 11.972656 24.867188 14.691406 24.996094 C 14.628906 24.597656 14.589844 24.191406 14.589844 23.769531 C 14.589844 22.417969 15.066406 20.988281 15.941406 19.792969 C 15.542969 18.445312 14.984375 15.582031 16.097656 14.550781 C 18.246094 14.550781 19.753906 15.582031 20.46875 16.21875 C 21.820312 15.660156 23.332031 15.34375 25 15.34375 C 26.667969 15.34375 28.179688 15.660156 29.449219 16.21875 C 30.167969 15.582031 31.675781 14.546875 33.824219 14.546875 C 35.015625 15.660156 34.378906 18.523438 33.980469 19.792969 C 34.855469 20.984375 35.332031 22.335938 35.253906 23.769531 C 35.253906 24.152344 35.21875 24.523438 35.164062 24.886719 C 37.945312 24.75 40.351562 24.859375 41.6875 24.96875 C 41.683594 25.238281 41.660156 25.5 41.644531 25.761719 C 40.316406 25.652344 37.851562 25.539062 35 25.691406 C 34.929688 25.960938 34.84375 26.21875 34.742188 26.472656 C 37.5625 26.507812 40.039062 26.78125 41.539062 27.019531 C 41.503906 27.28125 41.464844 27.542969 41.417969 27.804688 C 39.898438 27.558594 37.308594 27.273438 34.359375 27.261719 C 33.035156 29.546875 30.210938 31.039062 25.792969 31.214844 L 25.792969 31.238281 C 27.859375 31.238281 29.769531 34.339844 29.769531 36.484375 L 29.769531 40.777344 C 29.769531 41.429688 30.164062 41.992188 30.730469 42.234375 C 38.011719 39.824219 43.28125 32.960938 43.28125 24.878906 C 43.28125 14.800781 35.082031 6.601562 25 6.601562 C 14.917969 6.601562 6.71875 14.800781 6.71875 24.878906 C 6.71875 32.960938 11.988281 39.824219 19.269531 42.234375 Z M 19.269531 42.234375 "/>
</g>
</svg>
