<svg xmlns="http://www.w3.org/2000/svg" width="21.146" height="19.52" viewBox="0 0 21.146 19.52">
  <path id="Path_11" data-name="Path 11" d="M10.573,4.52,9.048,3.147Q6.4.707,5.236-.411T2.567-3.258A11.339,11.339,0,0,1,.534-6.333,7.589,7.589,0,0,1,0-9.154a5.659,5.659,0,0,1,1.677-4.168A5.6,5.6,0,0,1,5.795-15a5.972,5.972,0,0,1,4.778,2.237A5.972,5.972,0,0,1,15.351-15a5.6,5.6,0,0,1,4.117,1.677,5.659,5.659,0,0,1,1.677,4.168,7.589,7.589,0,0,1-.534,2.821,11.339,11.339,0,0,1-2.033,3.075Q17.08-1.529,15.91-.411T12.1,3.147Z" transform="translate(0 15)" fill="#f25b84"/>
</svg>
