<svg xmlns="http://www.w3.org/2000/svg" width="50.471" height="50.471" viewBox="0 0 50.471 50.471">
  <g id="Group_79" data-name="Group 79" transform="translate(-934.765 -3264.765)">
    <circle id="Ellipse_8" data-name="Ellipse 8" cx="25.235" cy="25.235" r="25.235" transform="translate(934.765 3264.765)" fill="#c3ccd3" opacity="0.13"/>
    <path id="Path_18" data-name="Path 18" d="M15.961-1.289V-8.883H14.379a5.043,5.043,0,0,1,.234,1.535,5.193,5.193,0,0,1-.75,2.725,5.468,5.468,0,0,1-2.039,1.975,5.631,5.631,0,0,1-2.813.727A5.475,5.475,0,0,1,5.063-3.51,5.145,5.145,0,0,1,3.422-7.348a5.043,5.043,0,0,1,.234-1.535H2v7.594a.692.692,0,0,0,.205.51.692.692,0,0,0,.51.205H15.246a.7.7,0,0,0,.5-.205A.682.682,0,0,0,15.961-1.289ZM11.572-5.057a3.321,3.321,0,0,0,1.061-2.479,3.321,3.321,0,0,0-1.061-2.479,3.55,3.55,0,0,0-2.561-1.025,3.536,3.536,0,0,0-2.549,1.025A3.321,3.321,0,0,0,5.4-7.535,3.321,3.321,0,0,0,6.463-5.057,3.536,3.536,0,0,0,9.012-4.031,3.55,3.55,0,0,0,11.572-5.057Zm4.389-6.7v-1.934a.787.787,0,0,0-.234-.568.771.771,0,0,0-.574-.24H13.113a.771.771,0,0,0-.574.24.787.787,0,0,0-.234.568v1.934a.781.781,0,0,0,.234.574.781.781,0,0,0,.574.234h2.039a.781.781,0,0,0,.574-.234A.781.781,0,0,0,15.961-11.754ZM18-14.191V-.809A2.222,2.222,0,0,1,17.32.82a2.222,2.222,0,0,1-1.629.68H2.309A2.222,2.222,0,0,1,.68.82,2.222,2.222,0,0,1,0-.809V-14.191A2.222,2.222,0,0,1,.68-15.82a2.222,2.222,0,0,1,1.629-.68H15.691a2.222,2.222,0,0,1,1.629.68A2.222,2.222,0,0,1,18-14.191Z" transform="translate(950.747 3297.065)" fill="#c3ccd3"/>
  </g>
</svg>
