<svg xmlns="http://www.w3.org/2000/svg" width="50.471" height="50.471" viewBox="0 0 50.471 50.471">
  <g id="Group_80" data-name="Group 80" transform="translate(-993.647 -3264.765)">
    <circle id="Ellipse_9" data-name="Ellipse 9" cx="25.235" cy="25.235" r="25.235" transform="translate(993.647 3264.765)" fill="#c3ccd3" opacity="0.13"/>
    <path id="Path_19" data-name="Path 19" d="M4.09-10.676V.938H.223V-10.676Zm.246-3.586a1.855,1.855,0,0,1-.592,1.43,2.208,2.208,0,0,1-1.588.574H2.133a2.115,2.115,0,0,1-1.547-.574A1.921,1.921,0,0,1,0-14.262,1.888,1.888,0,0,1,.6-15.7a2.205,2.205,0,0,1,1.576-.568,2.143,2.143,0,0,1,1.559.568A1.955,1.955,0,0,1,4.336-14.262ZM18-5.719V.938H14.145V-5.273A3.39,3.39,0,0,0,13.67-7.2a1.667,1.667,0,0,0-1.482-.7,1.9,1.9,0,0,0-1.236.4,2.492,2.492,0,0,0-.744,1,2.833,2.833,0,0,0-.129.949V.938H6.223q.023-4.676.023-7.582t-.012-3.469l-.012-.562h3.855v1.688h-.023a5.1,5.1,0,0,1,.48-.656,5,5,0,0,1,.662-.609,3.044,3.044,0,0,1,1.02-.51,4.645,4.645,0,0,1,1.342-.182,4.162,4.162,0,0,1,3.223,1.33A5.58,5.58,0,0,1,18-5.719Z" transform="translate(1009.629 3297.065)" fill="#c3ccd3"/>
  </g>
</svg>
