<svg xmlns="http://www.w3.org/2000/svg" width="5.897" height="23.586" viewBox="0 0 5.897 23.586">
  <path id="Path_9" data-name="Path 9" d="M5.012-19.053A2.829,2.829,0,0,1,5.9-16.989a2.829,2.829,0,0,1-.884,2.064,2.829,2.829,0,0,1-2.064.884,2.829,2.829,0,0,1-2.064-.884A2.829,2.829,0,0,1,0-16.989a2.829,2.829,0,0,1,.884-2.064,2.829,2.829,0,0,1,2.064-.884A2.829,2.829,0,0,1,5.012-19.053Zm0,17.69A2.829,2.829,0,0,1,5.9.7a2.829,2.829,0,0,1-.884,2.064,2.85,2.85,0,0,1-4.128,0A2.829,2.829,0,0,1,0,.7,2.829,2.829,0,0,1,.884-1.363a2.85,2.85,0,0,1,4.128,0Zm0-8.845A2.829,2.829,0,0,1,5.9-8.144a2.829,2.829,0,0,1-.884,2.064A2.829,2.829,0,0,1,2.948-5.2,2.829,2.829,0,0,1,.884-6.081,2.829,2.829,0,0,1,0-8.144a2.829,2.829,0,0,1,.884-2.064,2.829,2.829,0,0,1,2.064-.884A2.829,2.829,0,0,1,5.012-10.208Z" transform="translate(0 19.938)" fill="#c3ccd3"/>
</svg>
