<svg xmlns="http://www.w3.org/2000/svg" width="50.471" height="50.471" viewBox="0 0 50.471 50.471">
  <g id="Group_78" data-name="Group 78" transform="translate(-875.882 -3264.765)">
    <circle id="Ellipse_7" data-name="Ellipse 7" cx="25.235" cy="25.235" r="25.235" transform="translate(875.882 3264.765)" fill="#c3ccd3" opacity="0.13"/>
    <path id="Path_17" data-name="Path 17" d="M18.984-13.219a7.932,7.932,0,0,1-1.9,1.957q.012.164.012.492a10.753,10.753,0,0,1-.445,3.041A10.99,10.99,0,0,1,15.3-4.816,11.448,11.448,0,0,1,13.137-2.35,9.626,9.626,0,0,1,10.113-.639,11.065,11.065,0,0,1,6.328,0,10.511,10.511,0,0,1,.516-1.7a8.1,8.1,0,0,0,.914.047,7.411,7.411,0,0,0,4.7-1.617,3.69,3.69,0,0,1-2.2-.756A3.7,3.7,0,0,1,2.59-5.895a4.8,4.8,0,0,0,.715.059,3.916,3.916,0,0,0,1-.129A3.724,3.724,0,0,1,2.127-7.271,3.657,3.657,0,0,1,1.266-9.68v-.047a3.755,3.755,0,0,0,1.711.48,3.781,3.781,0,0,1-1.23-1.348,3.688,3.688,0,0,1-.457-1.8,3.709,3.709,0,0,1,.516-1.91,10.73,10.73,0,0,0,3.451,2.795,10.547,10.547,0,0,0,4.354,1.166,4.2,4.2,0,0,1-.094-.867,3.648,3.648,0,0,1,1.107-2.678A3.648,3.648,0,0,1,13.3-15a3.649,3.649,0,0,1,2.766,1.2,7.422,7.422,0,0,0,2.4-.914A3.675,3.675,0,0,1,16.8-12.633,7.542,7.542,0,0,0,18.984-13.219Z" transform="translate(891.865 3297.065)" fill="#2da7e2"/>
  </g>
</svg>
