<svg xmlns="http://www.w3.org/2000/svg" width="50.471" height="50.471" viewBox="0 0 50.471 50.471">
  <g id="Group_81" data-name="Group 81" transform="translate(-1052.529 -3264.765)">
    <circle id="Ellipse_10" data-name="Ellipse 10" cx="25.235" cy="25.235" r="25.235" transform="translate(1052.529 3264.765)" fill="#c3ccd3" opacity="0.13"/>
    <path id="Path_20" data-name="Path 20" d="M11.379-3.422V-.949q0,.785-.457.785a.752.752,0,0,1-.527-.258V-3.949a.752.752,0,0,1,.527-.258Q11.379-4.207,11.379-3.422Zm3.961.012v.539H14.285V-3.41q0-.8.527-.8T15.34-3.41ZM4.02-5.965H5.273v-1.1H1.617v1.1h1.23V.7H4.02ZM7.395.7H8.438V-5.086H7.395v4.43q-.352.492-.668.492-.211,0-.246-.246a3.262,3.262,0,0,1-.012-.41V-5.086H5.426V-.5A2.9,2.9,0,0,0,5.52.352.631.631,0,0,0,6.2.785,1.716,1.716,0,0,0,7.395.07Zm5.027-1.734V-3.34a4.168,4.168,0,0,0-.105-1.16.814.814,0,0,0-.832-.656,1.411,1.411,0,0,0-1.09.633V-7.066H9.352V.7h1.043V.141a1.454,1.454,0,0,0,1.09.645.811.811,0,0,0,.832-.645A4.308,4.308,0,0,0,12.422-1.031Zm3.961-.117V-1.3H15.316a5.8,5.8,0,0,1-.023.715.448.448,0,0,1-.469.422q-.539,0-.539-.809v-1.02h2.1V-3.2a2.326,2.326,0,0,0-.316-1.359,1.48,1.48,0,0,0-1.242-.6,1.492,1.492,0,0,0-1.254.6A2.261,2.261,0,0,0,13.242-3.2v2.027a2.2,2.2,0,0,0,.34,1.359,1.5,1.5,0,0,0,1.266.6A1.428,1.428,0,0,0,16.113.164a1.424,1.424,0,0,0,.246-.633A5.159,5.159,0,0,0,16.383-1.148Zm-7.125-10.7v-2.461q0-.809-.5-.809t-.5.809v2.461q0,.82.5.82T9.258-11.848Zm8.426,8.8a20.3,20.3,0,0,1-.3,4.1,2.226,2.226,0,0,1-.68,1.16,2.05,2.05,0,0,1-1.2.539A62.658,62.658,0,0,1,9,3a62.658,62.658,0,0,1-6.5-.246,2.077,2.077,0,0,1-1.2-.539,2.142,2.142,0,0,1-.674-1.16,19.886,19.886,0,0,1-.3-4.1,20.3,20.3,0,0,1,.3-4.1,2.226,2.226,0,0,1,.68-1.16,2.125,2.125,0,0,1,1.207-.551Q4.652-9.094,9-9.094t6.5.234a2.143,2.143,0,0,1,1.2.551,2.142,2.142,0,0,1,.674,1.16A19.887,19.887,0,0,1,17.684-3.047ZM5.988-18h1.2L5.766-13.324v3.176H4.594v-3.176a19.844,19.844,0,0,0-.715-2.484Q3.445-17.016,3.117-18H4.359l.832,3.082Zm4.336,3.9v2.051A2.31,2.31,0,0,1,10-10.664a1.442,1.442,0,0,1-1.242.6,1.449,1.449,0,0,1-1.23-.6A2.342,2.342,0,0,1,7.2-12.047V-14.1a2.285,2.285,0,0,1,.328-1.371,1.449,1.449,0,0,1,1.23-.6,1.442,1.442,0,0,1,1.242.6A2.285,2.285,0,0,1,10.324-14.1ZM14.25-16v5.848H13.184v-.645a1.687,1.687,0,0,1-1.207.727.651.651,0,0,1-.691-.434,3.006,3.006,0,0,1-.094-.879V-16h1.066v4.3a3.07,3.07,0,0,0,.012.41q.035.258.246.258.316,0,.668-.5V-16Z" transform="translate(1068.512 3297.065)" fill="#c3ccd3"/>
  </g>
</svg>
