<svg xmlns="http://www.w3.org/2000/svg" width="123.219" height="67.792" viewBox="0 0 123.219 67.792">
  <defs>
    <style>
      .cls-1 {
        fill: #ec4235;
      }

      .cls-2 {
        fill: #507fc1;
      }

      .cls-3 {
        fill: #1a9d54;
      }

      .cls-4 {
        fill: #f4bd1d;
      }
    </style>
  </defs>
  <g id="dsc_logo" transform="translate(-0.001 0.004)">
    <path id="Path_96" data-name="Path 96" class="cls-1" d="M212.979,127.032l42.58-25.593c3.651-2.2,4.609-7.6,2.142-12.081h0c-2.466-4.465-7.434-6.321-11.085-4.13L204.05,110.8c-3.651,2.191-4.621,7.6-2.142,12.067h0C204.373,127.344,209.328,129.187,212.979,127.032Z" transform="translate(-200.533 -84.311)"/>
    <path id="Path_97" data-name="Path 97" class="cls-2" d="M213.062,105.28l42.52,25.557c3.591,2.191,4.573,7.638,2.083,12.162h0c-2.5,4.537-7.49,6.428-11.133,4.238L204,121.691c-3.591-2.191-4.573-7.638-2.071-12.174h0C204.467,104.993,209.471,103.09,213.062,105.28Z" transform="translate(-200.531 -80.359)"/>
    <path id="Path_98" data-name="Path 98" class="cls-3" d="M300.658,127.032l-42.58-25.593c-3.651-2.2-4.609-7.6-2.142-12.081h0c2.466-4.465,7.434-6.321,11.085-4.13L309.588,110.8c3.651,2.191,4.621,7.6,2.143,12.067h0C309.265,127.344,304.309,129.187,300.658,127.032Z" transform="translate(-189.884 -84.311)"/>
    <path id="Path_99" data-name="Path 99" class="cls-4" d="M300.57,105.28l-42.52,25.557c-3.591,2.191-4.573,7.638-2.083,12.162h0c2.5,4.537,7.49,6.428,11.133,4.238l42.532-25.546c3.591-2.191,4.573-7.638,2.071-12.174h0C309.166,104.993,304.162,103.09,300.57,105.28Z" transform="translate(-189.88 -80.359)"/>
  </g>
</svg>
